<?xml version="1.0" encoding="utf-8"?>
<!-- Generator: Adobe Illustrator 24.0.2, SVG Export Plug-In . SVG Version: 6.00 Build 0)  -->
<svg version="1.1" id="Capa_1" xmlns="http://www.w3.org/2000/svg" xmlns:xlink="http://www.w3.org/1999/xlink" x="0px" y="0px"
	 viewBox="0 0 100 100" style="enable-background:new 0 0 100 100;" xml:space="preserve">
<style type="text/css">
	.st0{fill:#3766AF;}
	.st1{fill:#231F20;}
	.st2{fill:#FFFFFF;}
</style>
<path class="st0" d="M88.96,80.9c-8.22,10.34-20.23,16.98-33.37,18.44c-3.63,0.4-7.3,0.4-10.93,0
	c-13.15-1.44-25.18-8.07-33.41-18.43c6.92-4.88,14.57-8.65,22.66-11.16c10.57-3.29,21.89-3.29,32.46,0
	C74.43,72.26,82.05,76.03,88.96,80.9z"/>
<path class="st1" d="M60.49,73.21l-4.9,26.12c-0.41,0.05-0.81,0.08-1.22,0.11c-1.4,0.13-2.82,0.19-4.25,0.19
	c-1.6,0-3.2-0.08-4.8-0.24c-0.22,0-0.44,0-0.7-0.06l-5.44-26.12C44.3,71.69,55.36,71.69,60.49,73.21z"/>
<ellipse class="st2" cx="50.1" cy="36.09" rx="19.35" ry="22.17"/>
<path class="st1" d="M50.1,58.63c-10.87,0-19.69-10.11-19.69-22.54c0-13.19,1.4-22.53,19.7-22.53s19.7,9.34,19.7,22.53
	C69.8,48.51,60.96,58.63,50.1,58.63z M50.1,14.29c-17.66-0.01-18.99,8.63-18.99,21.8c0,12.05,8.52,21.84,18.99,21.84
	s18.98-9.79,18.98-21.81C69.08,22.92,67.76,14.28,50.1,14.29L50.1,14.29z"/>
<path class="st2" d="M62.31,43.71c0.94-5.9,10.74-7.36,10.26-0.4c-0.07,2.42-1,4.73-2.62,6.53c-1.68,1.71-4.39,2.52-6.57,1.54"/>
<path class="st1" d="M65.43,52.16c-0.75,0.01-1.5-0.15-2.19-0.45c-0.18-0.08-0.26-0.29-0.18-0.48c0.08-0.18,0.29-0.26,0.48-0.18
	c1.93,0.87,4.47,0.27,6.17-1.46c1.84-1.87,2.38-4.47,2.51-6.29c0.17-2.41-1.01-3.99-3.14-4.2c-2.62-0.3-5.9,1.56-6.41,4.71
	c-0.04,0.19-0.22,0.33-0.41,0.3c-0.2-0.03-0.33-0.21-0.3-0.4c0-0.01,0-0.01,0-0.02c0.57-3.55,4.25-5.65,7.2-5.31
	c1.97,0.22,4.01,1.66,3.77,4.99c-0.13,1.97-0.7,4.73-2.71,6.76C68.95,51.42,67.23,52.15,65.43,52.16z"/>
<path class="st2" d="M37.89,43.71c-0.94-5.9-10.75-7.36-10.27-0.4c0.07,2.42,1,4.73,2.61,6.53c1.68,1.71,4.39,2.52,6.57,1.54"/>
<path class="st1" d="M34.77,52.16c-1.81-0.04-3.53-0.79-4.79-2.1c-1.99-2.03-2.57-4.8-2.71-6.76c-0.23-3.34,1.8-4.77,3.78-4.99
	c2.94-0.34,6.64,1.76,7.2,5.31c0.03,0.2-0.1,0.39-0.3,0.42c0,0,0,0,0,0c-0.2,0.03-0.38-0.11-0.41-0.3c-0.5-3.15-3.78-5.01-6.41-4.71
	c-2.1,0.24-3.31,1.83-3.14,4.2c0.13,1.84,0.7,4.43,2.51,6.29c1.7,1.73,4.2,2.33,6.17,1.46c0.18-0.08,0.39,0,0.48,0.18
	c0.08,0.18,0,0.39-0.18,0.48C36.28,51.97,35.53,52.15,34.77,52.16z"/>
<path class="st2" d="M39.2,73.21c0,0,2.65,5.78,10.39,5.78c4.4,0.13,8.54-2.06,10.9-5.78l-1.04-22.69H40.2L39.2,73.21z"/>
<path class="st1" d="M49.58,79.35c-7.88,0-10.69-5.93-10.71-5.99c-0.01-0.06-0.01-0.11,0-0.17l1.04-22.69
	c0.01-0.19,0.17-0.34,0.36-0.34h19.2c0.19,0,0.35,0.15,0.36,0.34l1.03,22.69c0.01,0.07-0.01,0.13-0.04,0.19
	C58.37,77.2,54.11,79.46,49.58,79.35z M39.56,73.13c0.35,0.7,3.01,5.49,10.02,5.49c4.21,0.09,8.17-1.99,10.49-5.5l-0.99-22.23H40.57
	L39.56,73.13z"/>
<path class="st1" d="M40.2,60.24c1.48,2.15,3.48,3.89,5.81,5.08c3.8,2.1,9.49,4.48,14.1,3.77l-0.76-9.6
	c-3.38,0.42-6.8,0.44-10.18,0.06c-2.98-0.26-6.05-0.55-8.78-1.7C39.94,57.65,39.64,59.33,40.2,60.24z"/>
<path class="st1" d="M58.39,69.56c-4.64,0-9.71-2.39-12.51-3.94c-2.38-1.21-4.42-3-5.93-5.2c-0.49-0.83-0.51-1.87-0.04-2.71
	c0.16-0.22,0.46-0.29,0.7-0.17c2.73,1.15,5.88,1.4,8.67,1.67c3.36,0.38,6.75,0.36,10.11-0.06c0.09-0.01,0.19,0.01,0.27,0.07
	c0.08,0.06,0.12,0.15,0.13,0.24l0.72,9.6c0.01,0.18-0.11,0.34-0.29,0.37C59.6,69.52,58.99,69.56,58.39,69.56z M40.39,58.22
	c-0.21,0.6-0.16,1.26,0.14,1.83l0,0c1.44,2.11,3.39,3.82,5.67,4.97c3.03,1.67,8.75,4.35,13.56,3.77l-0.7-8.9
	c-3.29,0.37-6.6,0.37-9.89,0c-2.82-0.22-5.99-0.5-8.8-1.66L40.39,58.22z M40.29,58.17L40.29,58.17z"/>
<path class="st2" d="M49.3,61.75h1.58c7.47,0,13.53-6.06,13.53-13.53c0,0,0,0,0-0.01V26.79c0,0-4.7,1.35-14.32,1.35
	s-14.32-1.35-14.32-1.35v21.42C35.76,55.69,41.82,61.75,49.3,61.75z"/>
<path class="st1" d="M64.42,26.79v21.42c0,7.47-6.05,13.53-13.52,13.53c0,0,0,0-0.01,0H49.3c-7.47,0-13.53-6.06-13.53-13.53V26.79
	c0,0,4.71,1.35,14.32,1.35s14.32-1.35,14.32-1.35 M35.76,26.09c-0.16,0-0.31,0.05-0.43,0.14c-0.18,0.13-0.29,0.35-0.29,0.58v21.42
	c0.02,7.86,6.39,14.23,14.25,14.23h1.58c7.87-0.01,14.24-6.39,14.25-14.25V26.79c0-0.23-0.11-0.44-0.29-0.58
	c-0.13-0.09-0.28-0.14-0.44-0.14c-0.06-0.01-0.13-0.01-0.2,0c-0.05,0-4.75,1.32-14.12,1.32s-14.08-1.28-14.08-1.29
	c-0.07-0.01-0.14-0.01-0.2,0L35.76,26.09z"/>
<path class="st1" d="M50.32,48.35c-0.65,0-1.3-0.04-1.94-0.11c-0.27-0.03-0.51-0.19-0.64-0.43c-1-1.66,1.64-8.76,2.18-10.16
	c0.07-0.19,0.29-0.29,0.48-0.22c0.19,0.07,0.29,0.29,0.22,0.48c-1.2,3.13-2.87,8.48-2.24,9.53c0.02,0.05,0.07,0.08,0.12,0.09
	c1.27,0.13,2.56,0.13,3.83,0c0.2-0.02,0.38,0.12,0.41,0.31c0.02,0.2-0.11,0.37-0.31,0.4c0,0,0,0,0,0
	C51.71,48.32,51.02,48.36,50.32,48.35z"/>
<path class="st1" d="M50.1,99.95C22.49,99.97,0.08,77.6,0.07,49.98C0.05,22.37,22.42-0.03,50.03-0.05s50.02,22.35,50.03,49.97
	c0.01,11.31-3.82,22.3-10.86,31.15C79.75,93.01,65.34,99.97,50.1,99.95z M50.1,0.63C22.87,0.66,0.79,22.72,0.74,49.95
	C0.73,77.21,22.82,99.32,50.08,99.33c15.04,0.01,29.26-6.84,38.63-18.61c7-8.72,10.8-19.59,10.75-30.77
	C99.44,22.7,77.35,0.61,50.1,0.58V0.63z"/>
<polygon class="st2" points="49.83,84.97 46.18,82.16 49.83,79.35 53.47,82.16 "/>
<path class="st2" d="M54.35,99.44c-1.4,0.13-2.82,0.19-4.25,0.19c-1.6,0-3.2-0.08-4.8-0.24l3.29-15.39v-0.18h2.38l0.03,0.19
	L54.35,99.44z"/>
<path class="st1" d="M73.66,93.95h-0.05c-0.2-0.02-0.33-0.2-0.31-0.4c0,0,0,0,0-0.01l1.71-12.92c0.03-0.2,0.21-0.34,0.41-0.31
	c0.2,0.03,0.34,0.21,0.31,0.41l-1.72,12.92C73.99,93.82,73.84,93.96,73.66,93.95z"/>
<path class="st1" d="M26.54,93.95c-0.18,0-0.33-0.14-0.36-0.31l-1.71-12.92c-0.02-0.2,0.11-0.38,0.31-0.41
	c0.2-0.02,0.38,0.12,0.41,0.31l1.73,12.92c0.02,0.2-0.12,0.38-0.31,0.41L26.54,93.95z"/>
</svg>
